<svg xmlns="http://www.w3.org/2000/svg" viewBox="0 0 600.16 98.45"><defs><style>.a{fill:#fff;}.b{fill:#ed8d2d;}</style></defs><path class="a" d="M8.84,76,21.31,74.8l-.13,3.32a20.56,20.56,0,0,0,2.53,10.09,16.5,16.5,0,0,0,8.38,7.08A35.15,35.15,0,0,0,46,97.79q11.43,0,17.44-5t6-11.43a12.28,12.28,0,0,0-3.18-8.18Q63,69.55,48.52,63.31,37.28,58.44,33.2,55.84a30.44,30.44,0,0,1-9.49-9.19,21.24,21.24,0,0,1-3.05-11.33,23,23,0,0,1,4-13.25,25,25,0,0,1,11.79-9A46.73,46.73,0,0,1,54,9.93q11.62,0,19.61,3.89T85.18,24.21a25.68,25.68,0,0,1,3.61,12.41c0,.39,0,1-.07,2l-12.27,1a21.77,21.77,0,0,0-.72-6.3,16.64,16.64,0,0,0-4-6.69,19.35,19.35,0,0,0-7.51-4.38,32.26,32.26,0,0,0-10.68-1.66q-10.4,0-16.17,4.68a11.59,11.59,0,0,0-4.41,9.48,11.15,11.15,0,0,0,1.81,6.27c1.22,1.84,3.4,3.64,6.56,5.42q3.38,1.89,16,7.47A107.4,107.4,0,0,1,71.51,61a24.7,24.7,0,0,1,8,8.35,22.11,22.11,0,0,1,2.79,11.13,23.84,23.84,0,0,1-4.71,14.26,30.43,30.43,0,0,1-13,10.1,47.81,47.81,0,0,1-19,3.57q-16.17,0-26.39-7T8.84,76Z" transform="translate(-8.84 -9.93)"/><path class="a" d="M94.05,106.75l19.87-95.2h15.65l9.61,61.7a229.62,229.62,0,0,1,2.47,23.31,250.26,250.26,0,0,1,13.25-26l33.38-59h15.91l-19.88,95.2H171.78l9.94-46.3q3.43-16,9.87-36-4.09,9.3-10.13,20L146,106.75H133.72l-9.54-61a195,195,0,0,1-1.89-19.55Q120.67,38.7,119.11,46l-12.66,60.72Z" transform="translate(-8.84 -9.93)"/><path class="a" d="M196.33,106.75l54-95.2h15L281,106.75H268.67l-4.61-27.4H225.55l-15.26,27.4ZM231,69.54H262.5l-3.7-23.89q-2.15-14.24-2.66-23.71a173.79,173.79,0,0,1-9.48,19.42Z" transform="translate(-8.84 -9.93)"/><path class="a" d="M308,106.75l17.6-84.35H294.39l2.27-10.85H371.6L369.33,22.4h-31l-17.59,84.35Z" transform="translate(-8.84 -9.93)"/><path class="a" d="M439.27,73.25,451.87,75q-6,16.5-17.4,24.94a42.17,42.17,0,0,1-25.65,8.44q-17.34,0-27.51-10.59T371.15,67.47q0-25.72,15.46-42.54a44.54,44.54,0,0,1,34.22-15Q436,9.93,445.35,18t10.87,21.83L444.34,41q-1.89-10.33-7.76-15.42t-15.16-5.1q-17.48,0-28.25,15.52-9.36,13.38-9.36,31.76,0,14.67,7.21,22.4t18.77,7.73a27.82,27.82,0,0,0,17.86-6.43Q435.63,85,439.27,73.25Z" transform="translate(-8.84 -9.93)"/><path class="a" d="M460.7,106.75l19.94-95.2h12.67L485.06,51.1h49.35l8.25-39.55h12.73l-19.87,95.2H522.79l9.35-44.87H482.85l-9.42,44.87Z" transform="translate(-8.84 -9.93)"/><polygon class="b" points="371.16 6.07 600.16 6.07 591.16 18.07 360.16 18.07 371.16 6.07"/><polygon class="b" points="166.16 36.07 357.16 36.07 348.16 50.07 151.16 50.07 166.16 36.07"/><polygon class="b" points="271.16 71.07 588.16 71.07 578.16 83.07 253.16 83.07 271.16 71.07"/></svg>